<svg width="100%" height="100%" viewBox="0 0 256 256" fill="none" xmlns="http://www.w3.org/2000/svg">
  <rect width="256" height="256" rx="60" fill="url(#_radial1)" />
  <path
    transform="translate(28, 28) scale(2)"
    d="M21.5608 91.1274C19.6437 89.8112 18.1285 88.5367 18.1285 88.5367L67.4305 3.14273C67.4305 3.14273 69.4599 3.89541 71.1362 4.6991C73.2493 5.7119 74.9995 6.69925 74.9995 6.69925C98.8974 20.4969 107.098 51.1013 93.3008 74.9992C79.5028 98.8982 48.8986 107.098 25.0003 93.3005C25.0003 93.3005 23.3265 92.3383 21.5608 91.1274ZM70.8329 13.916L29.1669 86.0836C49.0821 97.5821 74.5857 90.748 86.0837 70.8333C97.5812 50.9174 90.7483 25.4143 70.8329 13.916ZM8.97091 78.5903C7.29542 76.1639 6.69899 75.0004 6.69899 75.0004C-1.91441 60.0392 -2.54612 41.0139 6.69933 25.0002C15.9448 8.98656 32.7365 0.0213028 50.0002 2.22286e-05C50.0002 2.22286e-05 52.331 -0.0059927 54.2717 0.179866C57.1954 0.459983 59.1392 0.837253 59.1392 0.837253L11.9909 82.5006C11.9909 82.5006 10.8724 81.3429 8.97091 78.5903ZM45.0127 8.63867C32.4482 10.1657 20.7258 17.372 13.9161 29.1673C7.10632 40.9618 6.72674 54.7167 11.6865 66.3621L45.0127 8.63867Z"
    fill="white" />
  <defs>
    <radialGradient id="_radial1" cx="0" cy="0" r="100%" gradientUnits="userSpaceOnUse">
      <stop stop-color="#189cff" />
      <stop offset="0.58" stop-color="#138ebf" />
      <stop offset="0.8" stop-color="#0971bf" />
      <stop offset="1" stop-color="#005493" />
    </radialGradient>
  </defs>
</svg>